<?xml version="1.0" encoding="UTF-8"?>
<svg version="1.1" xmlns="http://www.w3.org/2000/svg" width="512" height="512">
<path d="M0 0 C0.78095032 -0.00705963 1.56190063 -0.01411926 2.36651611 -0.02139282 C34.93937573 -0.24908173 34.93937573 -0.24908173 48.57421875 3.203125 C49.41645996 3.41243652 50.25870117 3.62174805 51.12646484 3.83740234 C75.81574069 10.12429129 99.52280144 20.26545056 119.57421875 36.203125 C120.10917969 36.62529297 120.64414062 37.04746094 121.1953125 37.48242188 C139.19454253 51.83432591 153.79207785 68.44170946 165.57421875 88.203125 C165.94401855 88.82074707 166.31381836 89.43836914 166.69482422 90.07470703 C189.02455294 128.04008962 195.69332278 175.24710051 184.72607422 217.84692383 C169.36409745 273.89241323 132.23973389 322.2489836 95.99804688 366.46337891 C94.72195571 368.02260827 93.45234494 369.587136 92.18359375 371.15234375 C87.38460572 377.06476606 82.46703202 382.86407051 77.47045898 388.60986328 C74.73425792 391.70564255 74.73425792 391.70564255 72.57421875 395.203125 C73.74082031 395.15929687 74.90742188 395.11546875 76.109375 395.0703125 C83.15296593 395.07855222 90.06905693 396.25100809 97.01171875 397.328125 C97.7366452 397.43949799 98.46157166 397.55087097 99.20846558 397.6656189 C176.19133849 409.5882634 176.19133849 409.5882634 197.57421875 436.203125 C201.46232468 442.50944315 203.47412384 448.72105699 202.57421875 456.203125 C199.63961232 467.34048675 192.0556977 475.06568041 182.57421875 481.203125 C157.98985222 495.37884464 130.24557554 501.35747047 102.57421875 506.203125 C101.74341797 506.35378418 100.91261719 506.50444336 100.05664062 506.65966797 C94.24981067 507.70151045 88.43011826 508.49234399 82.57421875 509.203125 C81.5162207 509.33992676 80.45822266 509.47672852 79.36816406 509.61767578 C57.27020015 512.34836594 35.10503392 512.52639226 12.8712616 512.57193375 C10.55879348 512.57800148 8.24640178 512.58923613 5.93395996 512.60165405 C-10.81506844 512.67993161 -27.42953642 512.2777633 -44.12109375 510.8203125 C-44.82601015 510.75886425 -45.53092655 510.697416 -46.25720406 510.63410568 C-144.5551953 501.86713482 -144.5551953 501.86713482 -174.95703125 470.03125 C-179.54277665 464.32346051 -181.83536012 457.80096821 -181.69921875 450.4765625 C-180.46795021 440.2394441 -174.06473893 433.1084127 -166.48828125 426.703125 C-138.19909168 405.71283257 -90.31597755 394.59546568 -55.42578125 395.140625 C-54.66265625 395.14964844 -53.89953125 395.15867187 -53.11328125 395.16796875 C-52.27796875 395.18537109 -52.27796875 395.18537109 -51.42578125 395.203125 C-55.896902 389.49587087 -60.49218373 383.93180058 -65.23828125 378.453125 C-69.71455873 373.27428646 -74.01950654 367.99446219 -78.21459961 362.5859375 C-81.13912253 358.82055567 -84.12746749 355.11789806 -87.16259766 351.44116211 C-94.09628465 343.02670411 -100.54813224 334.33323831 -106.84375 325.43359375 C-108.3814156 323.26567509 -109.93285776 321.10832619 -111.48828125 318.953125 C-147.44544734 268.9267775 -176.71279567 211.59598094 -166.39453125 148.40234375 C-157.92159189 101.1622056 -131.57371168 59.47237067 -92.48681641 31.63574219 C-65.83040554 13.10697898 -32.7567121 0.19758017 0 0 Z " fill="#FC636E" transform="translate(245.42578125,-0.203125)"/>
<path d="M0 0 C0.78095032 -0.00705963 1.56190063 -0.01411926 2.36651611 -0.02139282 C34.93937573 -0.24908173 34.93937573 -0.24908173 48.57421875 3.203125 C49.41645996 3.41243652 50.25870117 3.62174805 51.12646484 3.83740234 C75.81574069 10.12429129 99.52280144 20.26545056 119.57421875 36.203125 C120.10917969 36.62529297 120.64414062 37.04746094 121.1953125 37.48242188 C139.19454253 51.83432591 153.79207785 68.44170946 165.57421875 88.203125 C165.94401855 88.82074707 166.31381836 89.43836914 166.69482422 90.07470703 C189.02455294 128.04008962 195.69332278 175.24710051 184.72607422 217.84692383 C169.36409745 273.89241323 132.23973389 322.2489836 95.99804688 366.46337891 C94.72195571 368.02260827 93.45234494 369.587136 92.18359375 371.15234375 C87.38460572 377.06476606 82.46703202 382.86407051 77.47045898 388.60986328 C74.73425792 391.70564255 74.73425792 391.70564255 72.57421875 395.203125 C73.74082031 395.15929687 74.90742188 395.11546875 76.109375 395.0703125 C83.15296593 395.07855222 90.06905693 396.25100809 97.01171875 397.328125 C97.7366452 397.43949799 98.46157166 397.55087097 99.20846558 397.6656189 C176.19133849 409.5882634 176.19133849 409.5882634 197.57421875 436.203125 C201.46232468 442.50944315 203.47412384 448.72105699 202.57421875 456.203125 C199.63961232 467.34048675 192.0556977 475.06568041 182.57421875 481.203125 C157.98985222 495.37884464 130.24557554 501.35747047 102.57421875 506.203125 C101.74341797 506.35378418 100.91261719 506.50444336 100.05664062 506.65966797 C94.24981067 507.70151045 88.43011826 508.49234399 82.57421875 509.203125 C81.5162207 509.33992676 80.45822266 509.47672852 79.36816406 509.61767578 C57.27020015 512.34836594 35.10503392 512.52639226 12.8712616 512.57193375 C10.55879348 512.57800148 8.24640178 512.58923613 5.93395996 512.60165405 C-10.81506844 512.67993161 -27.42953642 512.2777633 -44.12109375 510.8203125 C-44.82601015 510.75886425 -45.53092655 510.697416 -46.25720406 510.63410568 C-144.5551953 501.86713482 -144.5551953 501.86713482 -174.95703125 470.03125 C-179.54277665 464.32346051 -181.83536012 457.80096821 -181.69921875 450.4765625 C-180.46795021 440.2394441 -174.06473893 433.1084127 -166.48828125 426.703125 C-138.19909168 405.71283257 -90.31597755 394.59546568 -55.42578125 395.140625 C-54.66265625 395.14964844 -53.89953125 395.15867187 -53.11328125 395.16796875 C-52.27796875 395.18537109 -52.27796875 395.18537109 -51.42578125 395.203125 C-55.896902 389.49587087 -60.49218373 383.93180058 -65.23828125 378.453125 C-69.71455873 373.27428646 -74.01950654 367.99446219 -78.21459961 362.5859375 C-81.13912253 358.82055567 -84.12746749 355.11789806 -87.16259766 351.44116211 C-94.09628465 343.02670411 -100.54813224 334.33323831 -106.84375 325.43359375 C-108.3814156 323.26567509 -109.93285776 321.10832619 -111.48828125 318.953125 C-147.44544734 268.9267775 -176.71279567 211.59598094 -166.39453125 148.40234375 C-157.92159189 101.1622056 -131.57371168 59.47237067 -92.48681641 31.63574219 C-65.83040554 13.10697898 -32.7567121 0.19758017 0 0 Z M-103.42578125 62.203125 C-104.10125 62.80511719 -104.77671875 63.40710937 -105.47265625 64.02734375 C-125.99191648 83.42293021 -139.52101773 110.60323229 -147.17578125 137.390625 C-147.37453857 138.07809814 -147.5732959 138.76557129 -147.77807617 139.47387695 C-151.01853063 151.33424584 -151.80218518 163.16326547 -151.73828125 175.390625 C-151.73645844 176.11579315 -151.73463562 176.8409613 -151.73275757 177.58810425 C-151.52419186 226.92714274 -124.90090761 272.38147407 -96.42578125 311.203125 C-95.26809852 312.79547794 -94.11055129 314.3879294 -92.953125 315.98046875 C-85.97452325 325.54712338 -78.84387485 334.97319198 -71.42578125 344.203125 C-70.91160645 344.8434668 -70.39743164 345.48380859 -69.86767578 346.14355469 C-63.77626032 353.71528109 -57.61496747 361.22129082 -51.31079102 368.61694336 C-48.44495382 371.98200783 -45.64036395 375.38960053 -42.86328125 378.828125 C-39.0379202 383.53311452 -34.99655473 387.99681483 -30.890625 392.45703125 C-28.49870828 395.12187666 -26.23323241 397.85144325 -23.98828125 400.640625 C-20.76634808 404.63536754 -17.41920514 408.44864609 -13.92578125 412.203125 C-9.62846888 416.82201003 -5.59807246 421.5953238 -1.640625 426.51171875 C1.94982681 430.87471927 5.75481616 435.04060823 9.57421875 439.203125 C13.9287157 437.62436189 16.35278054 434.22860035 19.19921875 430.765625 C20.2694024 429.48838301 21.34103656 428.21235508 22.4140625 426.9375 C22.94628418 426.30392578 23.47850586 425.67035156 24.02685547 425.01757812 C26.21053975 422.45696885 28.47857924 419.98813289 30.76171875 417.515625 C33.97066919 414.02052611 37.03487712 410.4602866 40.01171875 406.765625 C43.2336695 402.77086066 46.58099858 398.95780833 50.07421875 395.203125 C54.28770998 390.6697595 58.25715356 385.9936203 62.13671875 381.171875 C65.00347978 377.68030708 67.97197149 374.28786283 70.94921875 370.890625 C75.60629116 365.55959132 80.08230719 360.12893012 84.41625977 354.53271484 C87.30580848 350.80369479 90.25650835 347.13541778 93.25732422 343.49536133 C123.09798565 307.23855529 151.06374102 266.35010834 165.83544922 221.44628906 C166.48550521 219.47249049 167.1552757 217.50520782 167.828125 215.5390625 C171.88549474 203.23220669 172.93040242 190.81188917 172.88989258 177.92675781 C172.88673075 175.8360575 172.91032144 173.74677742 172.93554688 171.65625 C173.08974197 138.37544302 159.59855014 103.80836762 138.57421875 78.203125 C138.12320801 77.6467334 137.67219727 77.0903418 137.20751953 76.51708984 C110.3476688 43.52668057 71.36370026 21.43956228 28.8984375 16.640625 C-21.40115996 11.87816549 -66.30965256 28.8467133 -103.42578125 62.203125 Z " fill="#010101" transform="translate(245.42578125,-0.203125)"/>
<path d="M0 0 C0.65242676 0.21495117 1.30485352 0.42990234 1.97705078 0.65136719 C42.40153571 14.09605047 75.70313577 43.99090415 94.953125 81.83544922 C99.86828921 91.99819312 103.79738034 102.58151283 106.875 113.4375 C107.06610352 114.10958496 107.25720703 114.78166992 107.45410156 115.47412109 C110.59344377 127.2708689 111.38059324 139.04345259 111.3125 151.1875 C111.30827026 152.27924026 111.30827026 152.27924026 111.30395508 153.39303589 C111.03912791 198.94893003 88.33906232 240.26998306 63 277 C62.58733887 277.60038086 62.17467773 278.20076172 61.74951172 278.81933594 C49.74355618 296.23428123 36.84946446 312.98641561 23.39599609 329.30419922 C21.37761998 331.75604261 19.37826594 334.22330562 17.375 336.6875 C12.32260414 342.85344758 7.16929793 348.93206869 2 355 C1.50032715 355.58749023 1.0006543 356.17498047 0.48583984 356.78027344 C-4.50500592 362.64495334 -9.50458054 368.49079548 -14.6875 374.1875 C-17.69814479 377.5008308 -20.56565178 380.88941929 -23.375 384.375 C-27.0505728 388.92144022 -30.91068883 393.22757883 -34.89819336 397.49707031 C-38.8518396 401.75901884 -42.46402875 406.22463521 -46.02734375 410.8203125 C-47.94417148 412.93831225 -49.37288318 413.95385505 -52 415 C-56.96979609 409.63594034 -61.85180371 404.26139068 -66.4375 398.5625 C-70.09571015 394.02683557 -73.94742965 389.7429883 -77.91381836 385.48071289 C-81.69490558 381.39338994 -85.19689966 377.11956756 -88.6875 372.78125 C-91.19972519 369.75978997 -93.82421264 366.8757901 -96.5 364 C-100.73401516 359.44410919 -104.72932041 354.74728373 -108.62890625 349.90234375 C-111.31831577 346.61036472 -114.09181954 343.40005506 -116.875 340.1875 C-122.28625049 333.91465068 -127.43991422 327.47374349 -132.5078125 320.921875 C-134.11074785 318.85736141 -135.72632058 316.80317524 -137.34375 314.75 C-153.57084007 294.10639016 -168.88762038 272.7750289 -182 250 C-182.40460449 249.29907227 -182.80920898 248.59814453 -183.22607422 247.87597656 C-189.37362475 237.16916999 -195.05926333 226.31821477 -200 215 C-200.31066406 214.28908203 -200.62132812 213.57816406 -200.94140625 212.84570312 C-209.07202892 193.91393945 -213.18469152 174.75952496 -213.24023438 154.17626953 C-213.2498543 152.03246952 -213.28091155 149.88966637 -213.3125 147.74609375 C-213.62233643 107.10349651 -194.21751736 68.11039845 -166.37988281 39.32470703 C-123.44400942 -3.90281583 -57.71909987 -19.65683352 0 0 Z M-82 12 C-83.26972656 12.29003906 -84.53945312 12.58007812 -85.84765625 12.87890625 C-109.42870029 18.70710638 -130.95467812 30.13198746 -148.64453125 46.80078125 C-151 49 -151 49 -154.125 51.4375 C-158.66132392 55.48074523 -162.2755891 60.21419556 -166 65 C-166.67289063 65.85722656 -167.34578125 66.71445313 -168.0390625 67.59765625 C-179.03458894 82.11963638 -186.40426287 98.15415534 -191.75 115.5 C-191.94883789 116.12704834 -192.14767578 116.75409668 -192.35253906 117.40014648 C-196.00150043 129.85699958 -196.41082553 142.86583771 -196.375 155.75 C-196.37445618 156.49290283 -196.37391235 157.23580566 -196.37335205 158.0012207 C-196.33392377 169.75400228 -195.44765563 180.7203413 -192 192 C-191.78569336 192.74556152 -191.57138672 193.49112305 -191.35058594 194.25927734 C-185.15273536 215.6450194 -174.45935799 235.89771974 -159 252 C-157.91176687 253.3084403 -156.82824785 254.62081897 -155.75 255.9375 C-138.95791583 275.0789354 -112.6443853 290.37434078 -88 296 C-87.29891113 296.17611816 -86.59782227 296.35223633 -85.87548828 296.53369141 C-48.03523254 305.90493772 -8.86929887 298.8014348 24.56054688 279.48242188 C58.40278459 258.91696277 80.79919579 226.03954907 91.10546875 188.19140625 C93.66553259 177.03807099 94.31822247 165.97270856 94.25 154.5625 C94.25773437 153.27279297 94.26546875 151.98308594 94.2734375 150.65429688 C94.24857401 138.24120011 93.11551174 126.06526534 89.375 114.1875 C89.11557617 113.35057617 88.85615234 112.51365234 88.58886719 111.65136719 C82.29009314 92.00008036 72.62107138 74.52561057 59 59 C58.28199219 58.14921875 57.56398438 57.2984375 56.82421875 56.421875 C51.43097496 50.17605804 45.55841225 44.9936281 39 40 C38.21713623 39.39671875 38.21713623 39.39671875 37.41845703 38.78125 C3.8388753 13.08207833 -40.55188314 2.27451034 -82 12 Z " fill="#FCDD7B" transform="translate(307,24)"/>
<path d="M0 0 C3.32774987 -0.27286425 5.58866439 -0.34508776 8.43066406 1.53149414 C10.29519306 3.29399197 11.92679757 5.13552062 13.56347656 7.11108398 C14.16450195 7.79525391 14.76552734 8.47942383 15.38476562 9.18432617 C17.14113157 11.19900896 18.85830853 13.24049784 20.56347656 15.29858398 C21.40394531 16.30791992 22.24441406 17.31725586 23.11035156 18.35717773 C24.55829172 20.12602661 25.99614783 21.90318728 27.42285156 23.68920898 C30.49506372 27.43416833 33.78626776 30.96233141 37.08300781 34.50952148 C40.38341855 38.2205345 43.336863 42.17044966 46.26269531 46.18139648 C49.32548333 48.99978546 51.45226264 49.21552916 55.56347656 49.29858398 C59.43075265 48.17783492 61.21245876 45.53634527 63.62597656 42.42358398 C66.96426882 38.22468108 70.40275839 34.21804402 74.06347656 30.29858398 C77.51579659 26.59064688 80.82873996 22.81347281 84.00097656 18.86108398 C85.09732422 17.54043945 85.09732422 17.54043945 86.21582031 16.19311523 C87.95061513 14.05420848 89.57575379 11.90897332 91.19238281 9.68530273 C94.93918991 4.78523141 98.00827161 0.78374948 104.26660156 -0.40454102 C107.92796646 -0.37203568 111.47515352 0.21285364 115.0703125 0.87084961 C117.7228155 1.32592063 120.36333672 1.63012642 123.04003906 1.90795898 C145.27646599 4.26348102 167.37819879 8.02989804 188.56347656 15.29858398 C189.65523193 15.67200928 189.65523193 15.67200928 190.76904297 16.05297852 C218.68206108 25.74894656 218.68206108 25.74894656 227.62597656 36.86108398 C228.84801889 40.03839403 229.10537563 41.91171481 228.56347656 45.29858398 C219.66499993 61.61245781 196.09113131 67.34476396 179.54003906 72.37670898 C167.08777484 75.95080487 154.32677768 78.1628075 141.56347656 80.29858398 C140.11739014 80.54366699 140.11739014 80.54366699 138.64208984 80.79370117 C132.3025186 81.83836298 125.95133558 82.61574727 119.56347656 83.29858398 C118.34805176 83.43393555 117.13262695 83.56928711 115.88037109 83.70874023 C64.19845264 89.34626728 10.8513739 87.89913434 -40.43652344 79.29858398 C-42.03439697 79.03223145 -42.03439697 79.03223145 -43.66455078 78.76049805 C-104.71765972 68.2750261 -104.71765972 68.2750261 -120.24902344 47.92358398 C-121.71115348 44.69150705 -121.93897306 42.81573133 -121.43652344 39.29858398 C-115.92783844 27.53002967 -99.26908155 21.41303866 -87.81152344 16.85717773 C-77.24811192 13.16230024 -66.34899136 10.71842043 -55.43652344 8.29858398 C-54.20675781 8.02143555 -52.97699219 7.74428711 -51.70996094 7.45874023 C-43.4212154 5.6961909 -35.0646649 4.43024873 -26.68652344 3.17358398 C-25.54940918 3.00270264 -24.41229492 2.83182129 -23.24072266 2.65576172 C-15.50357815 1.52444531 -7.74782182 0.94945752 0 0 Z " fill="#A599A5" transform="translate(202.4365234375,409.701416015625)"/>
<path d="M0 0 C1.26328125 -0.03996094 2.5265625 -0.07992187 3.828125 -0.12109375 C12.99259412 1.18420414 19.0554265 8.33432349 25.28125 14.67578125 C26.15777222 15.55654831 27.03429443 16.43731537 27.93737793 17.34477234 C30.71541883 20.13950864 33.48280312 22.9445303 36.25 25.75 C38.13907504 27.65583766 40.03044239 29.55939306 41.921875 31.46289062 C46.5392526 36.11321627 51.14794264 40.77201525 55.75 45.4375 C59.08595784 43.98849773 61.24210129 42.17493761 63.78076172 39.58618164 C64.56192352 38.7951857 65.34308533 38.00418976 66.1479187 37.18922424 C67.40114426 35.90639809 67.40114426 35.90639809 68.6796875 34.59765625 C70.46211858 32.79480223 72.24467454 30.99207168 74.02734375 29.18945312 C76.82988974 26.34341681 79.63004122 23.49508251 82.42724609 20.64379883 C85.12993096 17.89279222 87.84178949 15.15108623 90.5546875 12.41015625 C91.38612274 11.55696304 92.21755798 10.70376984 93.07418823 9.82472229 C99.31793749 3.52799223 103.90261563 0.01767733 113.0625 -0.125 C120.23806722 0.03680201 124.64286336 1.37301168 129.75 6.4375 C135.22880269 12.61423934 137.14635072 17.24496672 137.015625 25.53515625 C135.59163436 41.09434804 117.55548537 53.75517289 107.1875 64.0625 C105.68661488 65.55835893 104.18596199 67.05445089 102.68554688 68.55078125 C99.04303521 72.18237866 95.39739935 75.81081184 91.75 79.4375 C93.19799576 82.77303205 95.00761068 84.9200986 97.60131836 87.45239258 C98.3923143 88.23032669 99.18331024 89.0082608 99.99827576 89.80976868 C100.85349319 90.64211533 101.70871063 91.47446198 102.58984375 92.33203125 C104.3928542 94.10974608 106.19557973 95.88774993 107.99804688 97.66601562 C110.84275966 100.46111847 113.69046907 103.25289954 116.54370117 106.03930664 C119.29710974 108.73220074 122.03786378 111.43747896 124.77734375 114.14453125 C125.63053696 114.97080521 126.48373016 115.79707916 127.36277771 116.64839172 C133.14596694 122.38237106 137.14680778 127.24954093 137.25 135.75 C137.03259588 142.63131311 134.66990085 148.22494394 130.03515625 153.32421875 C124.83228802 158.02615437 120.12019352 159.74781955 113.0625 159.9375 C111.92425781 159.9890625 110.78601563 160.040625 109.61328125 160.09375 C99.99235397 158.45945699 93.03310599 151.28527532 86.4609375 144.5390625 C85.63163727 143.70410248 84.80233704 142.86914246 83.94790649 142.00888062 C81.33063283 139.36941855 78.72770365 136.71632215 76.125 134.0625 C74.34077787 132.25819039 72.55562999 130.45479571 70.76953125 128.65234375 C66.41893382 124.25791184 62.07999097 119.85223262 57.75 115.4375 C54.56322395 116.83970894 52.4750261 118.48845143 50.05810547 120.98168945 C49.34991669 121.70616776 48.64172791 122.43064606 47.91207886 123.17707825 C47.15476471 123.96040024 46.39745056 124.74372223 45.6171875 125.55078125 C43.9900297 127.20812065 42.36241064 128.86500728 40.734375 130.52148438 C38.18168185 133.12976668 35.63305754 135.74168843 33.09277344 138.36206055 C30.63314764 140.89474691 28.1576769 143.41107614 25.6796875 145.92578125 C24.93451874 146.70303055 24.18934998 147.48027985 23.42160034 148.28108215 C17.5329032 154.22511914 11.35794264 158.6232066 2.9921875 160.1015625 C-5.7627918 159.99999661 -10.70580783 158.81867182 -16.9921875 152.7578125 C-22.50706912 146.82073899 -23.45386163 141.33667327 -23.7109375 133.4140625 C-22.31089074 124.37308258 -16.15328606 118.80259601 -9.890625 112.6875 C-8.98624695 111.78878174 -8.0818689 110.89006348 -7.15008545 109.96411133 C-4.76353826 107.5960693 -2.3687247 105.23708631 0.03070068 102.88214111 C2.48483254 100.4691952 4.92744194 98.04464438 7.37109375 95.62109375 C12.15360013 90.88255088 16.94735828 86.15562933 21.75 81.4375 C20.34250646 78.24181512 18.67295367 76.12455696 16.18994141 73.68212891 C15.46223541 72.96102936 14.73452942 72.23992981 13.98477173 71.49697876 C12.80508316 70.34218521 12.80508316 70.34218521 11.6015625 69.1640625 C10.79262543 68.36269867 9.98368835 67.56133484 9.15023804 66.73568726 C5.69093594 63.30905979 2.22000353 59.89430035 -1.25 56.47851562 C-3.78276122 53.9819912 -6.30945985 51.47944316 -8.8359375 48.9765625 C-9.61834808 48.2107486 -10.40075867 47.44493469 -11.20687866 46.65591431 C-18.34275576 39.58426353 -23.19383143 33.48240705 -23.625 23.0625 C-23.46605498 16.54575434 -21.88423872 12.16890327 -17.34375 7.4609375 C-11.60859883 2.26078178 -7.90301322 0.13598302 0 0 Z " fill="#030202" transform="translate(199.25,98.5625)"/>
<path d="M0 0 C0.84836426 0.69246826 0.84836426 0.69246826 1.71386719 1.39892578 C29.53131387 24.14978409 50.39979194 57.25755123 54.5859375 93.53125 C58.16346043 133.40966368 50.35795312 173.22239109 24.609375 204.9453125 C22.45182044 207.34504155 20.23466377 209.67240125 18 212 C16.91176687 213.3084403 15.82824785 214.62081897 14.75 215.9375 C-9.0624027 243.08145445 -46.16602702 257.90710904 -81.52783203 260.23193359 C-97.07815988 260.90618526 -111.93002947 259.95987172 -127 256 C-127.66177246 255.82871582 -128.32354492 255.65743164 -129.00537109 255.48095703 C-145.2363743 251.0956795 -161.57642368 243.09337821 -175 233 C-175.83144531 232.37738281 -176.66289062 231.75476563 -177.51953125 231.11328125 C-206.0366487 208.97321998 -224.91771507 179.22323301 -233 144 C-233.18095215 143.23429688 -233.3619043 142.46859375 -233.54833984 141.6796875 C-235.18417566 133.95563431 -235.30583146 126.32371232 -235.26074219 118.46777344 C-235.25008376 116.26729345 -235.2606613 114.06764183 -235.2734375 111.8671875 C-235.28797257 99.0451908 -234.24912358 86.48954155 -230.375 74.1875 C-230.11557617 73.35057617 -229.85615234 72.51365234 -229.58886719 71.65136719 C-223.287424 51.99175301 -213.61389048 34.54108369 -200 19 C-199.32066406 18.19949219 -198.64132813 17.39898437 -197.94140625 16.57421875 C-193.63553545 11.5800801 -189.11343019 7.1584602 -184 3 C-183.06542969 2.22785156 -182.13085938 1.45570312 -181.16796875 0.66015625 C-164.6406309 -12.70547531 -145.50984207 -21.69008997 -125 -27 C-123.8346875 -27.34160156 -122.669375 -27.68320312 -121.46875 -28.03515625 C-81.03033626 -39.28322854 -31.81238027 -26.45315179 0 0 Z M-124 -11 C-125.01562012 -10.72712158 -125.01562012 -10.72712158 -126.05175781 -10.44873047 C-146.71884984 -4.67577091 -164.13672803 6.85507453 -180 21 C-180.71800781 21.63292969 -181.43601563 22.26585937 -182.17578125 22.91796875 C-205.02467766 44.34767905 -218.2764938 75.91481163 -219.28125 106.94921875 C-220.00007711 145.02467016 -209.2731165 177.26411255 -182.73828125 205.19140625 C-160.82660126 227.66572567 -129.83139989 243.46032426 -98.08203125 244.30078125 C-60.6100381 244.60451854 -27.20337352 234.07061654 0.1953125 207.76953125 C24.70802545 183.56408071 38.71798209 152.89858456 39.35375977 118.30639648 C39.5666225 80.15992687 26.873902 48.22341807 0 21 C-25.14147765 -4.1825585 -59.23312305 -15.24926309 -94.17333984 -15.3190918 C-104.46889044 -15.2025242 -114.07763769 -13.6798746 -124 -11 Z " fill="#030201" transform="translate(346,64)"/>
<path d="M0 0 C6.97785926 6.90362672 13.54658424 14.14243269 19.75 21.75 C20.48476562 22.64976562 21.21953125 23.54953125 21.9765625 24.4765625 C23.22592752 26.03465093 24.45468673 27.6098405 25.6484375 29.2109375 C28.25402064 32.58854528 29.39949705 33.82399051 33.625 35.0625 C37.06484447 34.99879918 38.18270085 34.79380615 41 33 C43.05385739 30.78606196 43.05385739 30.78606196 45.0625 28.125 C48.41870319 23.90214565 51.88024518 19.87775533 55.5625 15.9375 C60.31736879 10.83337537 64.73714857 5.52094226 69 0 C69.33 0.66 69.66 1.32 70 2 C70.72993164 1.97534668 71.45986328 1.95069336 72.21191406 1.92529297 C79.66849522 1.78341047 86.47610389 2.52842221 93.75 4.125 C94.78914551 4.34873291 95.82829102 4.57246582 96.89892578 4.80297852 C110.27310138 7.80663253 124.36115178 11.9067838 134.625 21.4375 C136.49756092 24.92727262 136.54906422 27.08791746 136 31 C132.82422177 38.07332425 126.09290346 41.2927074 119.21875 44.16015625 C116.49576236 45.16597893 113.75773066 46.09435472 111 47 C110.27296875 47.26554687 109.5459375 47.53109375 108.796875 47.8046875 C89.55898677 54.71607698 68.14526853 56.0618692 47.859375 56.2734375 C46.74563004 56.28596558 45.63188507 56.29849365 44.48439026 56.31140137 C-40.39537675 57.08174433 -40.39537675 57.08174433 -64 35 C-66.09700424 31.85449364 -66.32924468 29.93704565 -66.55859375 26.23046875 C-65.52580181 22.1065233 -62.73132754 19.18477558 -59.29858398 16.83569336 C-57.39697087 15.7642441 -55.47533491 14.80339793 -53.5 13.875 C-52.79004883 13.5337207 -52.08009766 13.19244141 -51.34863281 12.84082031 C-35.95296261 5.62302069 -17.09181658 0.74937927 0 2 C0 1.34 0 0.68 0 0 Z " fill="#837683" transform="translate(221,424)"/>
<path d="M0 0 C6.5202718 4.60658088 11.97361292 10.94212037 17.50390625 16.65234375 C19.31354203 18.49894018 21.12411668 20.34461691 22.93554688 22.18945312 C25.76406847 25.07370185 28.58857388 27.96100423 31.39428711 30.86743164 C34.11993781 33.68979665 36.87373098 36.48378342 39.62890625 39.27734375 C40.46450577 40.15220932 41.30010529 41.02707489 42.161026 41.92845154 C46.7222876 46.52173727 46.7222876 46.52173727 52.58569336 48.98266602 C57.59613865 47.54061794 60.38077044 44.65172732 64 41 C64.73482605 40.28338196 65.4696521 39.56676392 66.22674561 38.82843018 C68.65960189 36.44009023 71.06230449 34.02425279 73.4609375 31.6015625 C74.33271637 30.72599701 75.20449524 29.85043152 76.10269165 28.94833374 C79.33377315 25.70304953 82.56018902 22.45315172 85.78649902 19.203125 C88.96692099 15.99988559 92.15105723 12.80036817 95.3359375 9.6015625 C96.17546967 8.75373199 97.01500183 7.90590149 97.87997437 7.03237915 C98.65483185 6.25421844 99.42968933 5.47605774 100.22802734 4.67431641 C100.91005219 3.98705475 101.59207703 3.29979309 102.29476929 2.59170532 C104.79591004 0.25707751 105.87749942 0.01134265 109.375 -0.3125 C113 0 113 0 115.4375 1.625 C117 4 117 4 117.6875 6.75 C115.94070665 15.00756856 106.23122737 21.81905579 100.3828125 27.50390625 C98.54092359 29.31369718 96.69979989 31.12426717 94.859375 32.93554688 C91.98272948 35.76265454 89.10332636 38.58631635 86.20800781 41.39428711 C83.39576244 44.12268738 80.60787474 46.87528571 77.8203125 49.62890625 C76.95060822 50.46450577 76.08090393 51.30010529 75.18484497 52.161026 C71.80972723 55.52057912 69.34897529 58.15949491 67.51123047 62.58569336 C68.26545241 67.85432166 71.28245303 70.37452336 75 74 C75.73071716 74.74763611 76.46143433 75.49527222 77.21429443 76.26556396 C79.65988955 78.75988506 82.13513983 81.22165786 84.6171875 83.6796875 C85.51494904 84.57366241 86.41271057 85.46763733 87.337677 86.38870239 C90.18102785 89.21991791 93.02751757 92.04794169 95.875 94.875 C99.64622689 98.61939441 103.4138674 102.36735327 107.1796875 106.1171875 C108.04939178 106.97859344 108.91909607 107.83999939 109.81515503 108.72750854 C110.61333649 109.52238678 111.41151794 110.31726501 112.23388672 111.13623047 C112.93891327 111.8360202 113.64393982 112.53580994 114.37033081 113.25680542 C116.53770929 115.57516699 116.96574909 116.68489163 117.3125 119.875 C117 123 117 123 115.5 125.375 C112.74226004 127.16753097 110.66976372 127.77147113 107.37298584 127.68600464 C101.82887984 126.08326333 97.90196338 120.82726853 94.0078125 116.75390625 C92.97212403 115.70073961 91.93456625 114.6494083 90.89523315 113.59983826 C88.17214767 110.84065076 85.47352085 108.05874289 82.77984619 105.27087402 C79.49655163 101.88137767 76.18586865 98.51867155 72.87855339 95.15264034 C70.30751314 92.53511844 67.7410156 89.91361433 65.18728638 87.27919006 C64.27228363 86.33829025 63.35728088 85.39739044 62.41455078 84.42797852 C61.60817169 83.59524918 60.8017926 82.76251984 59.97097778 81.90455627 C57.67122436 79.68230403 56.50999629 79.09714215 53.375 78.5 C45.07226299 79.73003511 38.12336606 89.8564742 32.53125 95.65234375 C30.72633022 97.49909305 28.92030777 99.34476519 27.11328125 101.18945312 C24.29217554 104.07242303 21.47565596 106.95868617 18.68115234 109.86743164 C15.96575685 112.69260424 13.2181079 115.48519827 10.46875 118.27734375 C9.63831177 119.15220932 8.80787354 120.02707489 7.95227051 120.92845154 C1.38790889 127.5244766 1.38790889 127.5244766 -3.43554688 127.64672852 C-7 127 -7 127 -9.5 125.375 C-11.55684151 122.11833428 -11.80468484 120.80396469 -11 117 C-6.29428959 110.52826657 -0.09932657 105.05273233 5.6171875 99.49609375 C7.45907641 97.68630282 9.30020011 95.87573283 11.140625 94.06445312 C14.01727052 91.23734546 16.89667364 88.41368365 19.79199219 85.60571289 C22.60423756 82.87731262 25.39212526 80.12471429 28.1796875 77.37109375 C29.04939178 76.53549423 29.91909607 75.69989471 30.81515503 74.838974 C34.19027277 71.47942088 36.65102471 68.84050509 38.48876953 64.41430664 C37.73454759 59.14567834 34.71754697 56.62547664 31 53 C30.26928284 52.25236389 29.53856567 51.50472778 28.78570557 50.73443604 C26.34011045 48.24011494 23.86486017 45.77834214 21.3828125 43.3203125 C20.0361702 41.97935013 20.0361702 41.97935013 18.662323 40.61129761 C15.81897215 37.78008209 12.97248243 34.95205831 10.125 32.125 C6.35377311 28.38060559 2.5861326 24.63264673 -1.1796875 20.8828125 C-2.04939178 20.02140656 -2.91909607 19.16000061 -3.81515503 18.27249146 C-4.61333649 17.47761322 -5.41151794 16.68273499 -6.23388672 15.86376953 C-6.93891327 15.1639798 -7.64393982 14.46419006 -8.37033081 13.74319458 C-10.53770929 11.42483301 -10.96574909 10.31510837 -11.3125 7.125 C-11 4 -11 4 -9.4375 1.625 C-5.91751657 -0.72165562 -4.16889057 -0.7642966 0 0 Z " fill="#E8EBED" transform="translate(203,115)"/>
<path d="M0 0 C14.3003907 6.82353668 26.95686609 14.59757394 39 25 C40.46953125 26.26650391 40.46953125 26.26650391 41.96875 27.55859375 C65.71121193 48.43770097 81.11488682 76.01271927 89.75 106.1875 C89.94883789 106.87513428 90.14767578 107.56276855 90.35253906 108.27124023 C93.59196716 120.13015861 94.38105502 131.96109656 94.3125 144.1875 C94.30968018 144.91532684 94.30686035 145.64315369 94.30395508 146.39303589 C94.03912791 191.94893003 71.33906232 233.26998306 46 270 C45.58733887 270.60038086 45.17467773 271.20076172 44.74951172 271.81933594 C32.74355618 289.23428123 19.84946446 305.98641561 6.39599609 322.30419922 C4.37761998 324.75604261 2.37826594 327.22330562 0.375 329.6875 C-4.67739586 335.85344758 -9.83070207 341.93206869 -15 348 C-15.49967285 348.58749023 -15.9993457 349.17498047 -16.51416016 349.78027344 C-21.50500592 355.64495334 -26.50458054 361.49079548 -31.6875 367.1875 C-34.69814479 370.5008308 -37.56565178 373.88941929 -40.375 377.375 C-44.0505728 381.92144022 -47.91068883 386.22757883 -51.89819336 390.49707031 C-55.8518396 394.75901884 -59.46402875 399.22463521 -63.02734375 403.8203125 C-64.94417148 405.93831225 -66.37288318 406.95385505 -69 408 C-70.5625 406.75 -70.5625 406.75 -72 405 C-71.66096298 401.1382856 -69.59367091 399.17076084 -67 396.4375 C-63.73878098 392.92423093 -60.62354927 389.36506777 -57.625 385.625 C-53.94492991 381.07299693 -50.07477116 376.76747752 -46.09082031 372.48535156 C-42.26705324 368.35118772 -38.71157972 364.0350225 -35.1796875 359.6484375 C-33.02242601 357.02724881 -30.78689 354.50845719 -28.5 352 C-24.27718177 347.35562677 -20.30402344 342.54608208 -16.35742188 337.66650391 C-14.80627064 335.76215888 -13.24011071 333.87076869 -11.671875 331.98046875 C-5.04583088 323.99042567 1.4857032 315.96040215 7.73730469 307.671875 C9.08206378 305.89134324 10.43548983 304.11758889 11.7890625 302.34375 C51.09778402 250.62692279 89.20591505 190.62816668 80.40795898 123.01611328 C75.20654304 86.46452889 58.01993496 54.82860496 33 28 C32.30261719 27.24847656 31.60523438 26.49695313 30.88671875 25.72265625 C22.33787427 16.82998256 12.53144982 9.65489747 1.94921875 3.375 C1.30597656 2.92125 0.66273438 2.4675 0 2 C0 1.34 0 0.68 0 0 Z " fill="#FBCD62" transform="translate(324,31)"/>
<path d="M0 0 C33.06142761 15.57579452 57.58300442 40.68015604 70.71875 75.125 C81.96374 107.71527043 79.61646711 144.6112583 64.859375 175.62109375 C51.27330155 202.85319685 28.58787573 224.36197872 1 237 C0.67 236.34 0.34 235.68 0 235 C0.75023437 234.52691406 1.50046875 234.05382812 2.2734375 233.56640625 C11.47397157 227.62198058 19.35318856 220.85348202 27 213 C27.48339844 212.57332031 27.96679688 212.14664063 28.46484375 211.70703125 C45.99774927 195.65926596 56.14464345 171.0658967 61.94921875 148.5859375 C62.12799561 147.8954834 62.30677246 147.2050293 62.4909668 146.49365234 C66.63427964 126.19638741 66.09990554 100.81816671 60 81 C59.75862305 80.21318848 59.51724609 79.42637695 59.26855469 78.61572266 C52.42905579 57.12076919 41.46060487 39.38401984 26 23 C25.26523437 22.18917969 24.53046875 21.37835938 23.7734375 20.54296875 C18.1507092 14.57234589 12.0327293 10.01858183 5.18139648 5.57836914 C3.42426522 4.43023041 1.70772697 3.22041034 0 2 C0 1.34 0 0.68 0 0 Z " fill="#F94654" transform="translate(308,60)"/>
</svg>
